name C:\Users\antoi\Documents\MyRepositories\upper-imu-dc\Results\main_tracking\Case_97\kinematics.mot
datacolumns 43
datarows 13
range 6.26000000 6.50000000
endheader 
time	clav_prot	clav_elev	scapula_abduction	scapula_elevation	scapula_upward_rot	scapula_winging	plane_elv	shoulder_elv	axial_rot	TrapeziusScapula_M/activation	TrapeziusScapula_S/activation	TrapeziusScapula_I/activation	TrapeziusClavicle_S/activation	SerratusAnterior_I/activation	SerratusAnterior_M/activation	SerratusAnterior_S/activation	Rhomboideus_S/activation	Rhomboideus_I/activation	LevatorScapulae/activation	Coracobrachialis/activation	DeltoideusClavicle_A/activation	DeltoideusScapula_P/activation	DeltoideusScapula_M/activation	LatissimusDorsi_S/activation	LatissimusDorsi_M/activation	LatissimusDorsi_I/activation	PectoralisMajorClavicle_S/activation	PectoralisMajorThorax_I/activation	PectoralisMajorThorax_M/activation	TeresMajor/activation	Infraspinatus_I/activation	Infraspinatus_S/activation	PectoralisMinor/activation	TeresMinor/activation	Subscapularis_S/activation	Subscapularis_M/activation	Subscapularis_I/activation	Supraspinatus_P/activation	Supraspinatus_A/activation	TRIlong/activation	BIC_long/activation	BIC_brevis/activation	
          6.26000000	        -49.60371392	          4.46960843	        -21.12199788	         -6.40462727	         64.35062434	        -15.51100128	         43.84670576	         92.18617614	         -9.39099463	          0.01932847	          0.04674865	          0.01719876	          0.03218911	          0.04307986	          0.11715593	          0.01727437	          0.01000137	          0.01000082	          0.01000167	          0.02864556	          0.08385882	          0.01000032	          0.06953077	          0.01000069	          0.01000048	          0.01000057	          0.03651415	          0.01000102	          0.02387484	          0.01000084	          0.03625377	          0.04339991	          0.01000122	          0.01000271	          0.01858805	          0.01000205	          0.01000085	          0.03333573	          0.03324006	          0.01000062	          0.03250147	          0.03850518	
          6.28000000	        -49.52966530	          4.45265196	        -20.80441552	         -6.40894910	         64.62678917	        -15.44688779	         44.17661663	         92.43292443	         -9.50731830	          0.01940494	          0.04631065	          0.01753762	          0.03216139	          0.04277352	          0.11788724	          0.01704864	          0.01000127	          0.01000075	          0.01000147	          0.02770490	          0.08282234	          0.01000038	          0.06905555	          0.01000069	          0.01000047	          0.01000056	          0.03613048	          0.01000095	          0.02357476	          0.01000083	          0.03676327	          0.04392084	          0.01000120	          0.01000301	          0.01819619	          0.01000183	          0.01000080	          0.03294793	          0.03251642	          0.01000062	          0.03198721	          0.03753292	
          6.30000000	        -49.45217390	          4.43671138	        -20.48143748	         -6.41194712	         64.90327196	        -15.38035992	         44.51550849	         92.66984189	         -9.60810241	          0.01963738	          0.04587103	          0.01804204	          0.03202309	          0.04261243	          0.11844129	          0.01655689	          0.01000128	          0.01000076	          0.01000148	          0.02633378	          0.08136647	          0.01000030	          0.06852463	          0.01000068	          0.01000046	          0.01000054	          0.03541101	          0.01000096	          0.02296329	          0.01000083	          0.03731939	          0.04465768	          0.01000118	          0.01000662	          0.01768604	          0.01000250	          0.01000084	          0.03244708	          0.03158933	          0.01000060	          0.03141854	          0.03610086	
          6.32000000	        -49.37293382	          4.42211028	        -20.15498504	         -6.41348492	         65.18092708	        -15.31275824	         44.86248617	         92.89684072	         -9.69215490	          0.02002321	          0.04543887	          0.01863789	          0.03186432	          0.04243856	          0.11899683	          0.01606557	          0.01000126	          0.01000076	          0.01000144	          0.02485842	          0.07977659	          0.01000034	          0.06797989	          0.01000069	          0.01000047	          0.01000055	          0.03462263	          0.01000094	          0.02229275	          0.01000085	          0.03791961	          0.04532227	          0.01000119	          0.01001757	          0.01709234	          0.01000171	          0.01000081	          0.03186553	          0.03057709	          0.01000063	          0.03075958	          0.03448209	
          6.34000000	        -49.29385265	          4.40900456	        -19.82715389	         -6.41354675	         65.46076991	        -15.24547602	         45.21580965	         93.11376372	         -9.75937870	          0.02052131	          0.04507768	          0.01947776	          0.03164678	          0.04247394	          0.11954686	          0.01538526	          0.01000136	          0.01000085	          0.01000160	          0.02311339	          0.07805015	          0.01000035	          0.06742133	          0.01000070	          0.01000050	          0.01000061	          0.03358233	          0.01000103	          0.02139657	          0.01000091	          0.03854228	          0.04627339	          0.01000122	          0.01010706	          0.01644319	          0.01000195	          0.01000092	          0.03127863	          0.02949981	          0.01000068	          0.03017419	          0.03261956	
          6.36000000	        -49.21705082	          4.39718922	        -19.50019021	         -6.41236865	         65.74394587	        -15.17986957	         45.57255375	         93.32052102	         -9.81094101	          0.02094992	          0.04460078	          0.02022011	          0.03135992	          0.04235505	          0.11970281	          0.01461188	          0.01000141	          0.01000092	          0.01000167	          0.02103494	          0.07569103	          0.01000007	          0.06665454	          0.01000068	          0.01000047	          0.01000058	          0.03228176	          0.01000107	          0.02031266	          0.01000095	          0.03897697	          0.04711896	          0.01000119	          0.01062155	          0.01574586	          0.01000199	          0.01000108	          0.03050183	          0.02818709	          0.01000066	          0.02944350	          0.03030753	
          6.38000000	        -49.14448948	          4.38603846	        -19.17614763	         -6.41046186	         66.03143117	        -15.11697607	         45.92839976	         93.51681285	         -9.84946860	          0.02139109	          0.04417901	          0.02121483	          0.03112473	          0.04220892	          0.11994514	          0.01408803	          0.01000142	          0.01000094	          0.01000166	          0.01911465	          0.07344002	          0.01000044	          0.06583823	          0.01000068	          0.01000050	          0.01000061	          0.03105495	          0.01000104	          0.01937749	          0.01000102	          0.03934264	          0.04785385	          0.01000118	          0.01129731	          0.01507762	          0.01000241	          0.01000112	          0.02976318	          0.02697155	          0.01000074	          0.02876058	          0.02811319	
          6.40000000	        -49.07803588	          4.37467406	        -18.85682869	         -6.40849755	         66.32429879	        -15.05763252	         46.27916043	         93.70216803	         -9.87839273	          0.02176177	          0.04374723	          0.02224409	          0.03093059	          0.04198206	          0.12017983	          0.01370747	          0.01000141	          0.01000094	          0.01000163	          0.01732680	          0.07109250	          0.01000116	          0.06482125	          0.01000069	          0.01000054	          0.01000065	          0.02986454	          0.01000099	          0.01851447	          0.01000112	          0.03971593	          0.04855922	          0.01000120	          0.01202921	          0.01442876	          0.01000089	          0.01000106	          0.02907196	          0.02587719	          0.01000089	          0.02819060	          0.02603657	
          6.42000000	        -49.01926267	          4.36184161	        -18.54354607	         -6.40738065	         66.62359088	        -15.00228589	         46.62036104	         93.87615755	         -9.90243395	          0.02211164	          0.04319796	          0.02289667	          0.03065152	          0.04170561	          0.12008675	          0.01295800	          0.01000145	          0.01000097	          0.01000169	          0.01530810	          0.06841472	          0.01029389	          0.06374937	          0.01000065	          0.01000050	          0.01000062	          0.02841630	          0.01000100	          0.01739944	          0.01000119	          0.03998404	          0.04914134	          0.01000116	          0.01289507	          0.01374369	          0.01000107	          0.01000116	          0.02824635	          0.02463936	          0.01000094	          0.02751538	          0.02358525	
          6.44000000	        -48.96951060	          4.34600409	        -18.23736063	         -6.40819337	         66.93015143	        -14.95108830	         46.94641600	         94.03843532	         -9.92653065	          0.02235974	          0.04285601	          0.02347902	          0.03044770	          0.04130968	          0.12011643	          0.01227209	          0.01000146	          0.01000101	          0.01000166	          0.01409434	          0.06647907	          0.01196433	          0.06277886	          0.01000060	          0.01000048	          0.01000061	          0.02745697	          0.01000101	          0.01677604	          0.01000125	          0.04006553	          0.04934853	          0.01000110	          0.01351089	          0.01331415	          0.01000194	          0.01000132	          0.02764910	          0.02381598	          0.01000096	          0.02702144	          0.02200323	
          6.46000000	        -48.92993580	          4.32584314	        -17.93920409	         -6.41185482	         67.24472521	        -14.90415473	         47.25290666	         94.18873072	         -9.95468875	          0.02238941	          0.04249944	          0.02397504	          0.03039906	          0.04060293	          0.12021357	          0.01212336	          0.01000135	          0.01000093	          0.01000154	          0.01333597	          0.06480531	          0.01346697	          0.06156306	          0.01000057	          0.01000045	          0.01000058	          0.02678446	          0.01000091	          0.01647097	          0.01000127	          0.04004462	          0.04912066	          0.01000105	          0.01410451	          0.01295903	          0.01000144	          0.01000126	          0.02711027	          0.02318169	          0.01000104	          0.02651586	          0.02082995	
          6.48000000	        -48.90110939	          4.30060141	        -17.64948008	         -6.41886758	         67.56779699	        -14.86144509	         47.53706606	         94.32664326	         -9.98966080	          0.02240381	          0.04212615	          0.02436236	          0.03036662	          0.03981991	          0.12025039	          0.01199774	          0.01000127	          0.01000085	          0.01000141	          0.01266220	          0.06309247	          0.01509405	          0.06027134	          0.01000052	          0.01000040	          0.01000053	          0.02618708	          0.01000083	          0.01626450	          0.01000141	          0.03995005	          0.04882236	          0.01000099	          0.01466758	          0.01266513	          0.01000178	          0.01000122	          0.02660017	          0.02262601	          0.01000107	          0.02608533	          0.01974816	
          6.50000000	        -48.88335050	          4.26978900	        -17.36841296	         -6.42953687	         67.89968355	        -14.82286654	         47.79683491	         94.45175995	        -10.03302766	          0.02231630	          0.04183818	          0.02461133	          0.03041425	          0.03909331	          0.12061490	          0.01181741	          0.01000128	          0.01000084	          0.01000142	          0.01214581	          0.06181491	          0.01636096	          0.05897742	          0.01000047	          0.01000036	          0.01000051	          0.02567164	          0.01000082	          0.01611613	          0.01000134	          0.03993086	          0.04862710	          0.01000095	          0.01515156	          0.01241399	          0.01000138	          0.01000127	          0.02621916	          0.02223450	          0.01000116	          0.02579655	          0.01888896	
